<?xml version="1.0" encoding="UTF-8"?>
<svg id="logo_1" data-name="logo 1" xmlns="http://www.w3.org/2000/svg" viewBox="0 0 849.35 846.89">
  <defs>
    <style>
      .cls-1 {
        fill: #000000;
      }
    </style>
  </defs>
  <path class="cls-1" d="M697.79,99.08c3.52,3.01,6.77,6.46,10.63,9.15-.61-.72-4.2-3.97-7.16-6.51l-12.42-10.18c3.02,2.47,5.2,4.27,8.95,7.54h0Z"/>
  <path class="cls-1" d="M683.29,89.43c6.1,5.36,9.01,7.71,9.62,7.85h.07c-.14-.27-.8-1.39-6.01-5.83h-.05s-.07-.13-.07-.13c5.09,4.49,5.77,5.5,5.84,5.7h0c-.79-.2-4.69-3.46-10.31-8.37l.06.07c.26.2.62.5.84.72h0Z"/>
  <path class="cls-1" d="M746.86,148.09c6.73,8.19,8.82,10.63,9.46,11.1-.09-1.2-13.77-17.36-17.45-20.9t-.11-.04q.11.22,8.1,9.85h0Z"/>
  <path class="cls-1" d="M731.03,135.84c4.11,5.03,8.85,10.52,9.96,10.75,0,0,.09-.07.14-.07,0-.42-.68-2.02-5.11-7.38h0c-.05-.05-.05-.13-.1-.13,4.3,5.29,4.97,6.86,4.97,7.24q-.05.04-.1.04c-.9-.2-4.72-4.24-9.86-10.56l.04.04v.07h.05Z"/>
  <path class="cls-1" d="M785.22,199.93q7.78,12.79,8.52,13.68c.23-.9-13.01-22.18-16.25-26.43q.12.31,7.72,12.74h0Z"/>
  <path class="cls-1" d="M771.96,188.4c2.8,4.6,7.87,12.54,9.18,12.61,1.12-1.39-10.22-19.88-14.31-23.34-.14,0-.29-.12-.4-.12-.49.76,4.53,9.18,5.54,10.86h0Z"/>
  <path class="cls-1" d="M750.14,174.06c4.31,7.47,9.11,12.95,9.59,10.88.18-.67-.03-2.46-2.96-7.76h0v-.05s-.04-.04-.08-.11c3.85,7.02,3.13,8.23,2.18,7.92-1.24-.36-4.79-3.95-9.41-12.11.05.07.05.14.1.14v.04c.18.27.4.72.58,1.05h0Z"/>
  <path class="cls-1" d="M818.14,263.08c3.19,7.73,5.66,14.22,5.77,14.47l-11.69-28.45c1.58,3.5,3.8,8.75,5.92,13.98h0Z"/>
  <path class="cls-1" d="M808.46,252.44c1.97,4.82,6.05,13.84,7.11,13.61.96-1.97-7.83-22.93-10.93-26.04-.03,0-.09-.04-.15-.09-.07.09-.12.09-.16.21-.07,1.9,3.14,9.86,4.13,12.31h0Z"/>
  <path class="cls-1" d="M788.31,237.16c3.64,9.51,7.72,15.01,8.8,13.37.27-.45.71-2.33-1.93-9.15v-.13l-.04-.04c3.03,8.12,2.13,9.92.78,9.12-1.12-.69-4.14-4.28-7.67-13.32v.11h.06v.04h0Z"/>
  <path class="cls-1" d="M832.82,314.48c.79,3.26,3.62,13.75,4.94,15.54h.22c.59-3.12-5.83-27.54-8.11-30.77h-.23c-.3,1.68,2.56,13,3.19,15.22h0Z"/>
  <path class="cls-1" d="M817.16,302.06c2.39,9.52,6.02,16.67,7.21,14.33,1.71-3.36-3.44-23.91-7.75-27.39-2.33-1.06-.94,7.44.54,13.06h0Z"/>
  <path class="cls-1" d="M789.82,285.62c2.25,9.51,7.16,16.37,9.12,12.63.86-1.59.86-4.64,0-9.09h0c0-.05-.04-.09-.04-.09,1.73,9.02-.58,10.85-2.73,9.21-1.57-1.06-4.67-5.32-6.63-14.15v.09h0v.09c.12.38.23.87.29,1.3h0Z"/>
  <path class="cls-1" d="M847.58,385.14c1.18,12.59,1.52,14.88,1.71,15.44.05-.11.23-.56-.4-8.95l-1.39-14.58c-.24-2.22-.86-7.36-1.13-8.39-.13.47-.17,1.08,1.22,16.48h0Z"/>
  <path class="cls-1" d="M837.17,375.52c.94,9.51,2.92,16.28,4.23,14.54,1.95-2.7.17-25.71-3.19-28.9-1.86-.68-1.58,8.39-1.04,14.35h0Z"/>
  <path class="cls-1" d="M814.25,360c.89,11.08,4.62,17.62,6.92,14.62.66-.97,1.78-3.55,1.39-10.43h-.07v-.1c.45,8.68-1.47,12.07-3.67,10.4-1.35-1.08-3.82-5.36-4.57-14.67v.18h0Z"/>
  <path class="cls-1" d="M844.57,442.41c-.21,5.85-.33,15.88.96,16.06,2.34-1.98,3.72-30.33,1.56-33.04,0,0-.11,0-.15-.05-1.24.94-2.09,11.15-2.37,17.03h0Z"/>
  <path class="cls-1" d="M827.39,431.45c-.4,10.43,1.76,17.84,4.41,14.97,3.71-4.01,4.77-26.35.3-29.61-3.06-.89-4.5,8.53-4.72,14.64h0Z"/>
  <path class="cls-1" d="M796.43,415.72c-.45,9.77,3.29,17.11,7.16,13.91,1.12-.94,3.08-3.5,3.81-10.63h0v-.05c-1.07,9.96-5.16,13.32-8.12,9.51-.78-.94-3.3-4.91-2.76-14.32v.07l-.04.04h0c0,.45-.05.99-.05,1.48h0Z"/>
  <path class="cls-1" d="M838.81,514.77c-1.05,4.89-2.86,13.23-2.86,15,1.8-1.39,7.27-32.34,7.24-32.57-.68,1.02-3.04,11.44-4.38,17.57h0Z"/>
  <path class="cls-1" d="M827.77,507.95c-1.79,9.08-1.69,15.68.29,14.58,3.46-1.93,9.7-27.12,6-29.92-2.26-.34-5.06,9.24-6.29,15.34h0Z"/>
  <path class="cls-1" d="M803.26,494.76c-2.29,11.19.1,17.34,3.62,14.98,1.02-.72,3.64-3.26,5.62-11.42h0v-.05c.05-.06.05-.13.05-.18-2.47,10.08-6.7,13.89-8.85,10.54-.57-.98-2.29-4.66-.34-14.12-.06.06-.06.1-.06.16l-.04.09h0Z"/>
  <path class="cls-1" d="M510.08,8.92c-4.09-.68-8.79-1.07-9.58-.57.6.69,3.06,1.07,10.96,1.9,6.5.73,12.09,1.36,17.59,2.7-2.47-.61-5.73-1.46-8.12-2.01-2.03-.44-6.11-1.34-10.86-2.02h0Z"/>
  <path class="cls-1" d="M524.74,12.6c-4.04-.31-5.95,0-5.51.69.69.84,4.88,1.5,12.55,1.96,4.54.27,6.23.34,8.73.73h-.11l-2.05-.56c-2.21-.69-8.12-2.26-13.61-2.82h0Z"/>
  <path class="cls-1" d="M540.63,17.32c-1.89.12-2.7.68-2.02,1.46,2.28,2.46,12.43,2.01,13.43.94,0-.17,0-.27-1.39-.74-5.48-1.67-8.61-1.79-10.02-1.67h0Z"/>
  <path class="cls-1" d="M557.36,22.8c-1.2,1.33,2.88,4.32,6.74,4.18,2.19-.04,3-1.15,1.75-2.34-.85-.82-2.47-1.38-3.14-1.62-3.53-1.11-4.82-.78-5.35-.21h0Z"/>
  <path class="cls-1" d="M574.57,28.96c2.58,3.47,8.5,6.16,8.99,4.6.4-1.12-2.96-3.86-7.94-5.76-.95-.4-2.13-.81-1.51.4.11.27.3.49.45.77h0Z"/>
  <path class="cls-1" d="M591.64,35.55c8.52,6.51,9.96,5.93,9.87,5.45-.29-1.41-6.73-5.56-12.3-7.83-.21-.04-.44-.18-.71-.22,0,0,0,.04-.04.04.17.18.31.34,3.18,2.56h0Z"/>
  <path class="cls-1" d="M608.19,42.64c6.23,4.01,9.92,6.42,10.55,6.15-.12-1.12-9.07-6.66-15.8-9.69-.1-.04-.26-.11-.34-.17q0,.13,1.01.71c1.51.99,3.1,1.98,4.58,3.01h0Z"/>
  <path class="cls-1" d="M623.68,49.79q10.35,6.26,10.72,6.4c-.5-.97-9.83-6.73-17.99-10.77-.1,0-.14-.04-.17-.04,2.39,1.62,4.97,2.83,7.44,4.42h0Z"/>
  <path class="cls-1" d="M637.53,56.91c3.55,2.06,6.85,4.53,10.51,6.41-.23-.32-3.96-2.78-10.37-6.5l-7.36-4.13c2.15,1.26,4.67,2.65,7.22,4.22h0Z"/>
  <path class="cls-1" d="M494.78,5.79c-5.02-.68-8.38-.95-9.06-.85.44.29,1.66.46,7.72,1.18,7.62,1,12.55,1.67,18.36,2.79-4.75-.9-11.13-2.13-15.94-2.91-.3-.09-.74-.09-1.08-.22h0Z"/>
  <path class="cls-1" d="M474.45,2.92c.45.07.9.12,1.35.18,1.88.21,3.76.46,5.66.67l-7.04-.9s0,.05.03.05h0Z"/>
  <path class="cls-1" d="M464.28,5.56c-6.96.44-11.48,1.68-10.41,2.79,1.84,2.14,36.49.9,37.78-1.23-.24-.22-.32-.22-1.06-.44-4.64-.9-16.39-1.79-26.31-1.12h0Z"/>
  <path class="cls-1" d="M486.7,11.05c-5.24.9-7.83,2.53-6.09,3.86,4.88,3.8,29.11-.51,29.02-2.63,0-.41-.97-.68-1.57-.9-4.75-1.14-14.44-1.53-21.36-.34h0Z"/>
  <path class="cls-1" d="M511.41,18.09c-4.16,1.58-4.47,4.11-.83,5.56,7.21,2.84,20.99-1.46,19.37-4.77-.4-.8-1.57-1.23-2.35-1.45-4.72-1.25-12.01-.98-16.19.65h0Z"/>
  <path class="cls-1" d="M537.67,26.49c-3.19,3.25,1.38,7.58,7.7,7.31,6.17-.2,9.65-4.75,6.03-7.75-.86-.78-1.93-1.12-2.54-1.34-4.75-1.46-9.34-.17-11.19,1.77h0Z"/>
  <path class="cls-1" d="M564.65,35.91c-.45,5.36,8.64,10.5,12.27,6.96,2.34-2.38,0-7.63-5.65-9.87-4.62-1.46-6.5.9-6.62,2.92h0Z"/>
  <path class="cls-1" d="M591.6,46.09c2.82,6.4,10.9,10.68,12.2,7.56,1.12-2.72-4.38-9.27-9.65-11.48-5.09-1.8-2.69,3.7-2.55,3.92h0Z"/>
  <path class="cls-1" d="M617.72,56.82c4.91,6.4,11.31,10.36,11.92,8.18.67-2.4-7.23-10.4-12.75-12.99-.66-.22-2.42-.89-1.34,1.46.23.47.76,1.59,2.17,3.34h0Z"/>
  <path class="cls-1" d="M642.19,67.83c6.33,6.48,11.58,9.94,11.53,8.28-.17-2.25-9.79-11.2-15.06-13.79-.45-.21-1.05-.43-.9.1.22.74,1.98,2.81,4.43,5.41h0Z"/>
  <path class="cls-1" d="M664.25,78.71c4.53,4.17,9.69,8.52,10.69,8.37.72-1.18-11.6-11.75-16.13-14.22-.33-.22-.37-.22-.51-.22.04.22.23.83,5.96,6.08h0Z"/>
  <path class="cls-1" d="M682.26,88.54h0c8.33,7.27,9.98,8.39,10.43,8.48-.07-.62-5.32-5.23-5.95-5.79h0c-5.75-4.93-9.47-7.49-10.3-8.07-.07,0-.16-.11-.23-.11.3.56,5.99,5.5,6.04,5.5h0Z"/>
  <path class="cls-1" d="M446.92,2.02c-1.8.08-11.02.29-13.15,1.42v.34c3.52,1.45,40.51-.17,40.73-.22-.23-.08-.43-.12-.54-.17-3.87-.64-15.76-1.62-27.05-1.37h0Z"/>
  <path class="cls-1" d="M433.77.3c-7.01,0-13.51.27-15.13.73q.45.17,21.27.04c8.12,0,9.29.07,20.69.47h-.17c-.52-.13-12.88-1.24-26.65-1.24h0Z"/>
  <path class="cls-1" d="M408.28.3c7.57,0,15.08-.35,22.58-.3l-22.52.3h-.05Z"/>
  <path class="cls-1" d="M433.09,17.19c-8.01,3.04-10.36,6.84-5.42,8.74,10.59,3.97,38.29-5.28,36.88-10.3-.23-1.01-1.65-1.44-2.7-1.74-7.98-1.6-21.15.4-28.76,3.3h0Z"/>
  <path class="cls-1" d="M466.41,26.39c-6.22,3.69-6.17,8.27.04,10.06,12.08,3.55,30.69-6.41,27.02-11.98-.75-1.11-2.33-1.67-3.26-1.94-7.64-1.88-18.26.56-23.8,3.86h0Z"/>
  <path class="cls-1" d="M502.33,37.46c-5.13,5.5-.29,11.87,8.97,11.78,10.99-.13,17.99-9.13,13.45-14.11-1.25-1.32-2.87-1.9-3.8-2.26-7.86-2.11-15.62,1.44-18.61,4.6h0Z"/>
  <path class="cls-1" d="M539.88,50.13c-2.93,7.58,7.21,15.1,15.42,11.53,7.41-3.21,6.77-13.1-.98-16.58-.29-.12-.67-.23-.96-.34-7.52-2.25-12.28,2.13-13.48,5.38h0Z"/>
  <path class="cls-1" d="M577.68,64.11c.23,8.63,11.37,16.24,16.53,11.21,4.08-3.93.61-13.99-7.73-17.47-6.57-2.13-8.9,2.69-8.8,6.26h0Z"/>
  <path class="cls-1" d="M614.76,78.8c3.08,9.6,13.66,15.87,15.95,11.08,2.02-4.21-3.74-14.63-11.41-18.03-5.62-2.02-5.77,3.05-4.54,6.96h0Z"/>
  <path class="cls-1" d="M649.83,93.78c5.01,9.54,13.62,15.28,14.58,11.23,1.07-4.4-7.16-15.53-13.65-18.71-4.88-1.94-2.41,4.3-1.92,5.58.29.56.67,1.37.98,1.9h0Z"/>
  <path class="cls-1" d="M681.73,108.74c5.29,7.9,12.21,13.93,12.96,11.24.9-3.25-9.02-15.95-14.94-19.16-.68-.27-2.69-1.12-1.06,2.69.62,1.44,1.69,3.28,3.04,5.22h0Z"/>
  <path class="cls-1" d="M709.26,123.12c5.52,7.18,11.14,12.43,11.31,10.59.23-2.65-10.54-15.7-15.34-18.66-.45-.16-1.24-.54-.67.78.49,1.37,2.28,4.06,4.7,7.29h0Z"/>
  <path class="cls-1" d="M730.79,135.61c2.93,3.57,8.75,10.48,9.99,10.68q.05,0,.1-.04c0-1.18-4.21-6.35-5.01-7.34-.1,0-.1-.06-.1-.06-4.36-5.32-8.17-9.18-9.66-10.25-.11-.04-.25-.09-.34-.09-.04.23-.11.65,5.01,7.05v.06h0Z"/>
  <path class="cls-1" d="M405.73,10.58c-8.11,2.14-12.45,4.84-10.04,6.29,4.96,3.13,41.08-4.27,40.7-8.23-.06-.5-.78-.73-1.69-.97-6.09-.95-19.41.34-28.97,2.9h0Z"/>
  <path class="cls-1" d="M384.23,6.51c-2.1.39-12.43,2.62-12.88,4.54,1.77,2.57,38.1-4.37,41.74-6.72,0-.13,0-.22.09-.33-.24-.11-.57-.22-.81-.22-4.53-.51-17.22.56-28.14,2.74h0Z"/>
  <path class="cls-1" d="M368.58,4.77c-4.54.8-12.65,2.42-14.3,3.46,0,.12.04.18.04.25,3.86.56,40.79-6.29,41.06-6.39-.12-.08-.23-.13-.37-.17-3-.07-14.44.82-26.42,2.84h0Z"/>
  <path class="cls-1" d="M348.62,6.9c-2.73.56-4.54.89-5.28,1.12.79-.1.83-.1,6.5-1.07,6.37-1.12,19.76-3.4,32.37-4.82l-8.86,1.02-24.39,3.69c-.12.05-.25.05-.34.05h0Z"/>
  <path class="cls-1" d="M376.16,29.7c-8.92,4.69-11.44,9.85-5.93,12.04,12.64,4.85,44.16-9.6,42.13-16.58-.37-1.46-2.24-1.96-3.36-2.31-9.11-1.68-24.18,2.27-32.84,6.85h0Z"/>
  <path class="cls-1" d="M415.05,40.1c-7.94,5.77-7.22,12.22,1.49,13.71,15.26,2.8,35.57-10.74,31.38-17.9-.93-1.57-2.96-2.24-4.14-2.65-9.16-2.06-22.05,1.98-28.72,6.84h0Z"/>
  <path class="cls-1" d="M458.21,53.14c-6.76,7.4-1.38,15.34,9.97,14.9,13.61-.54,24.99-13.22,17.99-19.88-1.3-1.17-2.58-1.66-3.99-2.18-9.82-2.44-19.91,2.69-23.97,7.16h0Z"/>
  <path class="cls-1" d="M504.07,68.26c-4.81,9.35,5.35,18.26,16.64,14.67,10.9-3.41,13.67-16.1,4.65-21.26-.61-.34-1.57-.67-2.25-.94-9.18-2.53-16.66,2.82-19.04,7.54h0Z"/>
  <path class="cls-1" d="M551.04,85.06c-2.07,10.79,10.76,19.95,19.33,13.7,6.71-4.87,5.09-17.56-5.04-21.76-8.73-2.65-13.39,3.56-14.29,8.05h0Z"/>
  <path class="cls-1" d="M597.75,102.98c.66,10.63,12.91,19.51,18.52,13.37,4.48-4.98.45-17.86-8.88-21.9-7.58-2.51-9.92,3.88-9.64,8.53h0Z"/>
  <path class="cls-1" d="M642.46,121.33c2.74,10.63,13.84,18.98,16.92,12.7,2.51-5.08-3.25-17.73-11.35-21.54-6.29-2.24-6.77,4.24-5.57,8.84h0Z"/>
  <path class="cls-1" d="M683.68,139.63c4.01,10.05,12.95,17.45,14.6,12.38,1.52-4.64-5.43-17.76-12.47-21.4-4.99-1.89-4,4.53-2.13,9.01h0Z"/>
  <path class="cls-1" d="M719.94,157.27c4.31,8.53,10.85,15,12.03,12.04,1.43-3.44-6.42-17.41-12.64-20.99-3.47-1.46-1.5,4.01-.83,5.81.31.9.94,2.19,1.44,3.14h0Z"/>
  <path class="cls-1" d="M749.4,172.74h0c4.37,7.83,9.68,13.97,10.2,11.84.09-.31.22-2.1-2.99-7.65v-.07h0c-3.26-5.54-6.93-10.32-9.22-11.75-.44-.23-1.53-.79-.63,1.92.71,2.31,2.63,5.7,2.63,5.7h0Z"/>
  <path class="cls-1" d="M346.16,22.7c-9.43,3.91-13.78,8.14-9.92,9.62,8.23,3.12,46.48-10.52,43.07-15.34-.29-.44-1.13-.66-1.76-.78-7.4-1.02-22.07,2.63-31.39,6.51h0Z"/>
  <path class="cls-1" d="M323.53,18.78c-9.38,3.34-15.06,6.72-12.71,7.61,4.64,1.81,41.54-9.85,42.94-13.54-.16-.35-.3-.35-.95-.52-5.04-.29-18.7,2.75-29.28,6.44h0Z"/>
  <path class="cls-1" d="M308.2,17.66c-1.31.39-12.44,3.91-14.59,5.82v.26c3.6.39,38.95-10.89,41.32-12.35v-.24h-.27c-3.52.24-15.61,3.04-26.47,6.51h0Z"/>
  <path class="cls-1" d="M284.69,23.82c-.13.05-.22.09-.29.09,12.67-3.26,24.85-7.93,37.52-11.19l-15.75,4.25-21.26,6.76c-.14.08-.17.08-.23.08h0Z"/>
  <path class="cls-1" d="M350.59,63.68c-10,8.84-8.07,17.9,3.78,18.69,19.38,1.37,42.34-18.82,35.43-27.08-1.27-1.48-2.82-2.02-4.53-2.6-12.47-2.56-27.82,4.87-34.68,10.99h0Z"/>
  <path class="cls-1" d="M399.77,78.35c-8.62,10.41-2.45,20.63,11.88,19.56,18.34-1.27,33.46-20.14,22.79-28.39-1.35-1.04-2.8-1.55-4-1.93-12.43-3.01-25.39,4.49-30.68,10.77h0Z"/>
  <path class="cls-1" d="M453.28,95.81c-6.69,11.93,3.77,23.05,18.4,19.56,15.61-3.77,22.34-22.3,10.5-29.19-.77-.43-1.93-.9-2.83-1.24-11.93-3.18-22.41,4.44-26.07,10.86h0Z"/>
  <path class="cls-1" d="M509.36,115.36c-4.4,13.37,9.72,25.01,22.54,18.46,11.42-5.83,12.54-23.85-1.45-29.52-11.08-3.16-19.04,4.55-21.09,11.06h0Z"/>
  <path class="cls-1" d="M565.84,136.36c-1.71,14.13,13.42,25.39,23.1,17.27,7.71-6.55,5.37-23.24-6.82-28.48-10.54-3.23-15.58,5.16-16.29,11.21h0Z"/>
  <path class="cls-1" d="M620.87,158.16c.64,13.55,14.56,24.32,21.28,16.38,5.48-6.51,1.17-22.75-9.65-27.73-9.01-2.96-11.93,5.36-11.63,11.35h0Z"/>
  <path class="cls-1" d="M672.48,179.9c2.25,12.43,13.44,22.27,18.12,15.9,4.38-5.83-1.17-22.52-10.72-27.28-7.4-2.65-8.48,5.66-7.4,11.38h0Z"/>
  <path class="cls-1" d="M718.73,200.94c3.12,11.22,11.76,19.83,14.9,14.97,3.19-5.12-3.05-21.85-11.17-26.16-5.65-2.2-5.29,5.7-3.73,11.19h0Z"/>
  <path class="cls-1" d="M757.9,220.56c3.55,9.83,9.8,17.23,11.66,13.53,2.07-4.11-4.53-20.61-10.81-24.43-3.97-1.66-2.62,5.72-.84,10.9h0Z"/>
  <path class="cls-1" d="M788.2,236.85c3.09,8.21,7.61,15.16,8.73,13.38.67-1.04-.04-4.71-1.84-9.2v-.12h0c-2.65-6.39-5.65-11.57-7.78-13.17-2.77-1.25.1,7,.44,7.9.1.36.29.8.38,1.21h.06Z"/>
  <path class="cls-1" d="M310.38,52.76c-9.29,6.55-11.42,13.21-4.65,14.83,13.49,3.36,45.52-15.01,40.8-23.28-.65-1.23-1.9-1.57-3.26-1.93-9.05-1.53-24.11,4.22-32.9,10.39h0Z"/>
  <path class="cls-1" d="M279.36,45.6c-9.56,5.7-13.42,11.13-8.57,12.07,9.59,1.9,43.55-15.93,40.42-21.27-.27-.5-1.06-.72-1.71-.86-6.96-.71-21,4.6-30.14,10.05h0Z"/>
  <path class="cls-1" d="M257.31,41.95c-8.64,4.47-13.84,8.79-11.87,9.69,4.71,2.06,41.99-16.09,39.52-19.24-.18-.17-.56-.25-.78-.3-4.91,0-17.86,5.04-26.87,9.85h0Z"/>
  <path class="cls-1" d="M243.82,41.38c-4.62,2.28-12.6,6.51-13.44,7.9,2.4,1.07,36.84-17.14,37-17.41-.05,0-.16,0-.28-.07-3.06.52-14.17,5.1-23.28,9.58h0Z"/>
  <path class="cls-1" d="M287.38,91.45c-11.22,11.53-8.31,22.16,5.78,21.53,20.19-.9,44.69-25.01,34.62-33.96-1.19-1.08-2.74-1.57-3.97-2.02-12.99-2.58-29.16,6.95-36.42,14.44h0Z"/>
  <path class="cls-1" d="M339.25,106.95c-9.39,12.22-2.83,23.91,12.44,22.45,20.21-2.01,37.28-24.54,25.68-33.93-1.39-1.19-3-1.79-4.36-2.22-13.6-3.16-27.98,6.15-33.76,13.71h0Z"/>
  <path class="cls-1" d="M397.43,125.82c-7.85,13.77,3.32,26.42,19.6,22.16,17.97-4.64,26.66-26.31,13.59-34.05-.9-.54-2.19-.99-3.13-1.4-13.49-3.47-25.72,5.66-30.05,13.29h0Z"/>
  <path class="cls-1" d="M459.7,147.31c-5.97,15.23,9.38,28.22,24.49,20.84,13.95-6.9,16.97-27.62,1.17-33.94-12.78-3.5-22.7,5.5-25.66,13.1h0Z"/>
  <path class="cls-1" d="M523.72,170.63c-3.46,15.12,11.39,27.64,24.03,20.37,11.6-6.73,11.81-27.14-2.96-33.27-11.65-3.47-19.36,5.5-21.07,12.9h0Z"/>
  <path class="cls-1" d="M587.16,195.01c-1.4,15.43,13.76,27.31,23.51,18.35,7.96-7.29,5.49-25.5-7.09-31.11-10.27-3.28-15.73,5.51-16.41,12.76h0Z"/>
  <path class="cls-1" d="M647.63,219.53c.31,13.66,12.66,24.59,19.88,17.68,6.83-6.42,3.37-24.97-7.9-30.23-9.06-3.01-12.16,6.05-11.98,12.56h0Z"/>
  <path class="cls-1" d="M702.9,243.27c1.49,12.87,11.68,22.57,16.73,15.83,4.62-6.19.36-23.46-8.75-28.04-7.17-2.47-8.72,6.15-7.98,12.21h0Z"/>
  <path class="cls-1" d="M750.86,265.43c2.05,11.04,9.46,19.38,12.79,14.36,3.46-5.27-.92-21.94-8.22-25.98-5.29-1.97-5.65,6.04-4.57,11.62h0Z"/>
  <path class="cls-1" d="M789.48,284.02h0c2.25,10.63,7.49,17.34,9.42,13.89.38-.77,1.22-3.14-.06-9.09h0c-1.64-7.02-4.48-12.67-7.22-14.42-2.63-1.12-3.42,2.55-2.14,9.62h0Z"/>
  <path class="cls-1" d="M247.77,80.46c-10.12,8.84-11.81,16.92-3.64,17.72,15.25,1.44,46.14-22.2,39.37-30.14-.74-.85-1.78-1.17-2.67-1.44-10.05-1.48-25.4,7.26-33.06,13.86h0Z"/>
  <path class="cls-1" d="M218.65,73.64c-9.29,7.09-13.2,13.59-8.77,14.42,9.01,1.82,42.27-20.88,39.52-26.84-.3-.68-1-.86-1.54-1.02-6.58-.46-20.24,6.62-29.21,13.44h0Z"/>
  <path class="cls-1" d="M199.53,70.61c-8.85,6.17-14.06,11.64-11.44,11.91,5.39.63,38.77-21.58,37.19-24.67-.13-.23-.45-.3-.68-.34-4.26.29-16.41,6.93-25.07,13.1h0Z"/>
  <path class="cls-1" d="M189.78,70.95c-5.5,3.7-11.98,8.3-13.22,9.74.04.04.11.13.11.13,3.03-1.03,32.75-20.84,34.35-22.41-.15,0-.15-.11-.18-.11-2.17.78-11.86,6.5-21.07,12.65h0Z"/>
  <path class="cls-1" d="M269.62,146.77c-10.86,16.2-2.02,30.68,16.29,26.56,23.14-5.14,39.58-33.63,24.76-42.98-.97-.63-2.46-1.19-3.53-1.5-15.28-3.55-31.14,8.41-37.51,17.93h0Z"/>
  <path class="cls-1" d="M330.58,166.86c-9.29,17.23,3.03,32.17,21.94,26.56,20.95-6.12,31.54-32.84,16.64-42.04-1.03-.58-2.59-1.23-3.72-1.66-15.55-3.99-29.77,7.67-34.87,17.14h0Z"/>
  <path class="cls-1" d="M397.38,190.08c-7.34,17.79,7.94,32.95,25.93,25.82,19.02-7.56,23.77-34,7.43-41.61-.57-.23-1.35-.49-1.95-.74-15.24-4.13-27.55,7.17-31.41,16.53h0Z"/>
  <path class="cls-1" d="M467.68,215.49c-5.41,18.26,11.76,33.25,27.88,24.31,15.02-8.29,17.2-32.93-.6-40.33-14.27-4.13-24.58,6.91-27.28,16.01h0Z"/>
  <path class="cls-1" d="M538.74,242.23c-3.36,17.36,12.86,31.72,26.28,23.15,12.66-8.01,12.73-31.77-3.51-38.7-12.95-3.9-21.11,6.73-22.77,15.54h0Z"/>
  <path class="cls-1" d="M607.74,269.25c-1.72,16.79,12.68,29.78,23.69,21.39,10.18-7.74,8.7-30.14-5.47-36.52-11.09-3.47-17.32,6.78-18.22,15.13h0Z"/>
  <path class="cls-1" d="M672.15,295.55c-.39,15.54,11.81,27.21,20.15,19.27,7.77-7.44,5.43-28.22-6.38-33.8-9.63-3.17-13.56,7.25-13.77,14.53h0Z"/>
  <path class="cls-1" d="M729.42,320.2c.39,13.33,9.28,23.51,15.38,17.55,6.4-6.38,4.03-26.51-5.7-31.45-7.44-2.51-9.86,7.17-9.68,13.9h0Z"/>
  <path class="cls-1" d="M777.39,342.25c.78,11.31,6.84,19.81,10.92,15.43,4.95-5.18,2.7-24.29-4.81-28.56-5.21-1.79-6.54,7.1-6.1,13.12h0Z"/>
  <path class="cls-1" d="M814.25,359.59c.64,9.97,4.39,17.82,6.86,14.56.96-1.22,1.79-4.59,1.38-10.29h0c-.66-7.49-2.6-13.32-5.08-15.01-2.37-.83-3.59,3.26-3.17,10.74h0Z"/>
  <path class="cls-1" d="M220.45,131.14c-10.05,12.72-7.58,24.02,5.07,22.83,19.14-1.79,41.81-28.37,32.35-38.02-1.17-1.1-2.59-1.57-3.7-2.02-12.04-2.29-26.94,8.7-33.72,17.21h0Z"/>
  <path class="cls-1" d="M183.17,120.16c-9.47,10.46-10.5,19.54-2.15,18.98,14.94-1.03,41-28.22,33.18-34.72-.43-.32-1.24-.58-1.78-.77-8.79-1.25-22.34,8.95-29.24,16.51h0Z"/>
  <path class="cls-1" d="M157.37,113.5c-8.63,8.72-11.99,15.95-7.23,15.77,9.05-.2,36.83-26.42,32.97-31.09-.22-.27-.67-.43-1.01-.54-5.31-.2-16.95,8.07-24.73,15.86h0Z"/>
  <path class="cls-1" d="M142.36,110.88c-4.3,4.08-11.38,11.35-10.56,13.06,2.15.71,12.8-8.52,16.01-11.45,7.64-6.72,15.65-15,15.31-16.5,0-.09-.05-.18-.1-.18-.04-.07-.18-.12-.27-.12-3.14.52-13.06,8.28-20.39,15.19h0Z"/>
  <path class="cls-1" d="M125.75,122.67c9.55-8.12,18.57-16.95,28.04-25.23h0l-19.48,17.08-8.53,8.16h-.03Z"/>
  <path class="cls-1" d="M206.32,187.95c-10.44,18.21-1.98,33.47,15.88,28.62,22.91-6.21,38.98-38.02,24.18-48-.93-.68-2.46-1.21-3.52-1.66-14.93-3.36-30.39,10.27-36.54,21.04h0Z"/>
  <path class="cls-1" d="M266.46,208.54c-9.16,18.89,3.26,34.95,22.23,28.62,22.95-7.67,33.22-39.14,15.42-47.55-.59-.2-1.42-.47-2.03-.76-15.97-4.04-30.46,9.08-35.62,19.69h0Z"/>
  <path class="cls-1" d="M334.71,232.68c-7.76,19.33,7.84,35.66,26.56,27.72,20.77-8.74,26.25-37.23,8.84-45.44-.6-.36-1.46-.63-2.02-.9-16.06-4.36-29.16,8.26-33.38,18.62h0Z"/>
  <path class="cls-1" d="M408.13,259.5c-6.51,20.05,11.08,35.82,28.94,25.98,16.65-9.18,20.15-35.94,1.23-43.78-15.38-4.37-26.92,7.73-30.17,17.81h0Z"/>
  <path class="cls-1" d="M483.88,287.77c-4.76,18.98,12.01,34.05,27.63,24.77,14.63-8.69,16.29-34.28-1.21-41.73-14.22-4.14-24.04,7.38-26.42,16.96h0Z"/>
  <path class="cls-1" d="M558.98,316.59c-3.33,17.7,11.88,31.59,25.03,22.86,12.39-8.3,12.83-32.25-2.85-39.08-12.5-3.8-20.48,7.23-22.18,16.22h0Z"/>
  <path class="cls-1" d="M630.45,344.79c-2.21,16.28,10.85,28.76,21.44,20.4,10.27-7.98,9.95-29.72-3.54-35.84-10.53-3.23-16.79,7.06-17.9,15.43h0Z"/>
  <path class="cls-1" d="M695.42,371.26c-1.27,14,8.2,24.79,16.35,18.57,8.66-6.54,8.57-27.81-2.64-33.15-8.32-2.63-13.03,6.95-13.71,14.58h0Z"/>
  <path class="cls-1" d="M751.48,394.96c-.81,12.77,6.15,21.75,12.21,15.83,6.26-6.24,5.92-25.08-2.38-29.35-6.49-2.02-9.52,7.26-9.83,13.52h0Z"/>
  <path class="cls-1" d="M796.52,413.9h0c-.8,11.33,3.37,18.37,7.07,15.34.75-.56,3.19-3.12,3.81-10.63h0c.44-7.78-1.27-13.95-4.41-15.72-3.13-.99-5.61,3.23-6.47,11.01h0Z"/>
  <path class="cls-1" d="M161,172.56c-9.93,15.21-6.77,27.77,6.17,24.4,19.85-5.2,39.41-37.78,26.49-44.16-.41-.16-.9-.34-1.31-.48-11.14-2.06-25.04,10.55-31.36,20.24h0Z"/>
  <path class="cls-1" d="M128.3,161.97c-8.57,11.89-9.73,21.83-2.52,20.88,12.73-1.64,36.76-32.95,30.29-39.46-.38-.4-1.03-.67-1.57-.85-7.72-.96-19.97,10.82-26.2,19.43h0Z"/>
  <path class="cls-1" d="M107.55,155.83c-7.67,9.82-10.93,17.9-7.17,17.56,7.33-.65,33.42-32.91,28.99-35.91-.09-.14-.33-.14-.44-.22-4.31,0-14.44,9.68-21.37,18.57h0Z"/>
  <path class="cls-1" d="M97.97,153.81c-4.87,5.92-10.14,12.97-10.14,14.56.07,0,.1.05.17.11,3.13-1.03,27.11-29.67,27.04-32.25-.08-.04-.11-.13-.17-.13-2.08.74-10.4,9.78-16.91,17.72h0Z"/>
  <path class="cls-1" d="M198.84,261.86c-8.71,21.82,4.52,40.13,23.63,32.57,23.76-9.35,33.72-46.12,15.03-55.36-.64-.29-1.53-.61-2.16-.85-16.84-4.38-31.44,11.21-36.5,23.64h0Z"/>
  <path class="cls-1" d="M265.93,286.71c-8.11,22.73,8.39,40.99,28.54,31.58,21.56-10.16,29.56-44.53,7.17-53.76-17.47-4.8-31.39,10.09-35.71,22.18h0Z"/>
  <path class="cls-1" d="M340.01,314.48c-7.3,22.95,11.9,40.86,31.63,29.57,18.74-10.74,23.17-41.83,2.17-50.6-17.25-4.83-30.17,9.39-33.8,21.03h0Z"/>
  <path class="cls-1" d="M418.15,343.98c-6.05,21.66,12.52,38.81,30.63,28.15,17.73-10.34,20.88-39.41.42-48.03-16.29-4.71-27.99,8.8-31.04,19.88h0Z"/>
  <path class="cls-1" d="M497.29,374.15c-4.99,20.26,12.12,36.16,28.17,26.16,15.78-9.8,18.04-36.97-.56-44.97-14.74-4.31-25.01,8.39-27.61,18.81h0Z"/>
  <path class="cls-1" d="M574.27,403.83c-4.19,19.02,10.47,33.12,24.59,23.5,13.49-9.24,15.2-34.25-.9-41.32-12.83-3.79-21.55,8.17-23.69,17.82h0Z"/>
  <path class="cls-1" d="M645.92,431.73c-3.28,16.44,7.47,28.76,18.89,21.61,11.98-7.52,14.44-32.05.67-38.31-10.54-3.01-17.75,7.96-19.56,16.7h0Z"/>
  <path class="cls-1" d="M709.5,457.01c-2.74,14.56,5.42,25.08,14.3,18.37,9.46-7.17,11.71-29,1.08-34.05-8.12-2.29-13.86,7.71-15.38,15.67h0Z"/>
  <path class="cls-1" d="M762.5,478.52c-2.23,12.21,2.68,20.82,9.09,15.9,7.6-5.97,10.45-26.22,2.38-30.3-6.11-1.68-10.24,7.94-11.47,14.4h0Z"/>
  <path class="cls-1" d="M803.36,494.29c-2.16,9.91-.33,17.65,3.6,15,2.18-1.46,4.42-5.92,5.65-11.38v-.04h0c1.55-7.83.94-13.77-1.64-15.24-2.79-.67-5.7,3.82-7.61,11.65h0Z"/>
  <path class="cls-1" d="M145.27,241.61c-8.45,18.66-1.05,33.89,13.82,28.53,20.62-7.34,33.72-42.82,18.77-50.61-.44-.23-1.11-.45-1.64-.67-12.98-3-25.9,11.48-30.96,22.75h0Z"/>
  <path class="cls-1" d="M105.13,226.35c-7.78,15.75-5.09,28.32,5.27,24.54,15.57-5.74,31.41-39.97,21.17-45.85-.29-.18-.73-.36-1.07-.52-9.18-1.68-20.34,11.76-25.37,21.83h0Z"/>
  <path class="cls-1" d="M77.99,215.95c-6.55,12.34-7.6,22.38-2.18,21.17,10.13-2.13,29.42-37.24,23.01-41.67-.18-.09-.44-.22-.67-.34-5.87-.65-15.34,11.78-20.16,20.84h0Z"/>
  <path class="cls-1" d="M62.93,210.02c-5.77,10.12-8.56,18.3-6.16,17.79,4.98-.9,24.74-34.48,22.01-37.35-.04-.04-.18-.11-.27-.15-2.87.15-10.32,10.36-15.57,19.71h0Z"/>
  <path class="cls-1" d="M51.61,221.11c-.33.67-.66,1.21-.95,1.88,1.11-1.21,19.99-33.25,19.99-33.38-.44.58-.85,1.12-1.23,1.75l-17.03,28.4-.72,1.24s0,.12-.06.12h0Z"/>
  <path class="cls-1" d="M816.02,574.13c-.57,1.34-5.08,13.88-3.74,14.92,2.96-.57,14.4-30.65,12.31-32.49-1.64.21-6.03,10.63-8.57,17.57h0Z"/>
  <path class="cls-1" d="M797.77,566.49c-3.26,9.47-3.04,16.31.51,14.31,5.42-3.09,14.67-26.82,9.69-29.65-3.25-.38-7.9,8.75-10.19,15.34h0Z"/>
  <path class="cls-1" d="M765.13,553.51c-2.96,9.31-.98,16.15,3.99,13.79,1.73-.81,5.07-3.37,8.17-11.3h.04s0-.13.07-.13c-4.33,10.72-10.47,14.02-12.66,9.54-.83-1.58-1.72-5.5.95-13.45,0,0,0,.09-.04.09h0c-.13.47-.34,1.04-.52,1.46h0Z"/>
  <path class="cls-1" d="M789.3,639.64c-4.26,7.38-6.56,11.53-6.77,12.3,1.31-.62,16.08-25.63,16.83-28.49v-.05c-1.05.83-7.91,12.66-10.06,16.24h0Z"/>
  <path class="cls-1" d="M777.62,636.59c-4.02,7.29-5.54,12.66-3.53,12.23,4.36-.95,17.65-24.04,15.06-26.19-.07-.11-.16-.11-.3-.25-2.55.14-8.27,8.75-11.23,14.22h0Z"/>
  <path class="cls-1" d="M752.88,627.22c-4.98,9.52-4.09,14.42-.12,13.07,1.06-.44,4.92-2.28,9.74-10.51h0v-.07q0-.05.06-.1c-5.55,9.4-11.48,12.7-12.65,9.05-.45-1.28-.64-4.51,3.06-11.57,0,0-.05.04-.05.13h-.03Z"/>
  <path class="cls-1" d="M749.61,690.11c-1.77,2.36-7.6,9.99-7.22,11.2,2.25.56,21.38-23.07,20.71-25.52-.04,0-.1-.06-.1-.06-2.01.56-9.12,8.95-13.4,14.37h0Z"/>
  <path class="cls-1" d="M731.16,686.33c-4.75,6.59-6.32,11.53-3.54,11.19,5.88-.55,21.84-21.22,18.08-23.51-.04-.05-.23-.1-.38-.1-3.4-.11-10.34,7.23-14.16,12.43h0Z"/>
  <path class="cls-1" d="M699.14,677.49c-4.54,6.82-4.16,12.01.75,10.83,1.25-.33,5.88-1.88,11.49-9.18,0,0,.03,0,.03-.04l.1-.06c-7.22,9.19-15.03,11.6-15.3,6.49-.18-2.24,1.12-5.42,3.81-9.39-.04.04-.04.09-.04.09h-.1v.06c-.2.33-.54.78-.75,1.19h0Z"/>
  <path class="cls-1" d="M707.92,739.05c-3.14,2.79-6.37,5.62-9.42,8.53.3-.14.49-.34.79-.58l9.16-7.95,12.46-11.53c1.1-1.08,1.1-1.12,1.19-1.24-5.08,3.93-9.49,8.52-14.18,12.76h0Z"/>
  <path class="cls-1" d="M695.87,739.05c-4.47,4.25-8.12,8.63-6.48,8.63,3.63.1,23.62-18.13,21.37-19.48-.07,0-.16,0-.2-.06-2.76.38-10.5,6.88-14.69,10.92h0Z"/>
  <path class="cls-1" d="M672.52,733.69c-6.15,6.26-6.66,9.61-3.91,9.52,1.62,0,6.42-1.79,13.11-8.06h.04l.04-.14c-7.83,7.39-14.64,9.74-14.54,6.55.05-1.18,1.05-3.54,5.42-8.05,0,.05-.04.05-.11.11v.06h-.07Z"/>
  <path class="cls-1" d="M656.43,776.45c-5.95,4.03-9.14,6.43-9.65,7.11,1.45.49,24.85-15.08,26.39-17.52,0,0-.12-.11-.18-.11-2.57.9-15.17,9.52-16.55,10.52h0Z"/>
  <path class="cls-1" d="M639.06,775.36c-5.62,4.12-8.23,7.24-6.28,7.37,4.93.34,25.3-13.54,23.41-16.03-.13-.1-.39-.22-.57-.22-3.51.12-12.03,5.48-16.56,8.87h0Z"/>
  <path class="cls-1" d="M610.35,769.94c-4.94,4.11-6.24,7.41-2.92,7.48,1.79.04,7.08-1.2,14.22-6.43h0c.05,0,.05-.08.05-.08-8.66,6.33-16.51,8.02-15.8,4.54.37-1.51,2.21-3.68,5.5-6.39h-.07l-.04.14h0c-.28.21-.67.5-.94.75h0Z"/>
  <path class="cls-1" d="M593.14,808.91c-4.95,2.49-7.83,4.04-8.5,4.76v.18c3.01.11,24.81-10.07,25.3-11.76-.04-.04-.17-.11-.27-.11-3.31.49-15.97,6.71-16.53,6.93h0Z"/>
  <path class="cls-1" d="M573.38,806.33c-6.65,3.6-7.83,5.28-6.83,5.68,1.25.38,6.78-.83,14.77-4.87h.09c-8.26,4.04-15.07,5.69-14.86,4.2.06-.5,1.1-1.86,7.01-5.01h-.18Z"/>
  <path class="cls-1" d="M546.1,829.18c-5.51,1.69-10.01,2.92-11.13,3.25l28.36-8.62c.36-.13.77-.29,1.11-.47,0,0-.08.08-.12.08-6.09,1.78-12.08,3.85-18.21,5.75h0Z"/>
  <path class="cls-1" d="M531.84,829.52c-5.03,1.69-7.83,2.81-8.39,3.37,0,0,.04.1.11.1,3.19.29,24.13-5.72,25.91-7.89-.04-.05-.04-.17-.09-.17-.12,0-.22,0-.29-.05-3.71.17-15.86,4.2-17.25,4.64h0Z"/>
  <path class="cls-1" d="M509.27,826.62c-3.28,1.22-6.78,2.98-5.81,3.59.89.67,7.06-.12,15.04-2.92h.14c-8.57,2.92-15.86,3.81-14.97,2.35.3-.55,1.74-1.56,6.77-3.45h-.1l-.04.04c-.3.12-.74.3-1.03.39h0Z"/>
  <path class="cls-1" d="M479.39,843.32c-4.26.6-6.21.81-9.78,1.28l22.32-2.98c1.38-.24,2.85-.45,4.24-.79h-.04c-5.61.67-11.13,1.68-16.74,2.49h0Z"/>
  <path class="cls-1" d="M465.55,842.51c-6.72,1.12-7.94,1.46-8.28,1.71.44.3,7.27-.24,14.11-1.25h0s.07,0,.07-.07c-7.58,1.18-13.25,1.52-13.91,1.32.17-.18.4-.48,8.17-1.71h-.16Z"/>
  <path class="cls-1" d="M435.61,846.78h-.1c-3.7.04-7.43.11-11.16.11l11.26-.11h0Z"/>
  <path class="cls-1" d="M405.5,845.64c-5.61.09-6.46.09-6.9.13.22.1,6.01.44,13.08.51h.15c-7.41-.07-12.52-.41-12.96-.51.3-.04.57-.04,7.8-.13h-1.17Z"/>
  <path class="cls-1" d="M142.36,313.48c-7.29,23.28,5.2,41.86,22.56,33.69,21.07-9.85,31.48-50.24,10.07-59.66-15.61-4.17-28.48,12.65-32.63,25.98h0Z"/>
  <path class="cls-1" d="M205.24,338.33c-6.96,23.7,9.23,42.54,27.91,32.65,20.56-10.93,27.48-47.18,5.73-56.71-16.95-4.69-29.9,11.24-33.64,24.07h0Z"/>
  <path class="cls-1" d="M276.89,366.41c-6.63,23.65,12.39,42.17,31.31,30.46,18.58-11.46,22.78-43.99,1.89-52.94-17.12-4.93-29.71,10.18-33.2,22.48h0Z"/>
  <path class="cls-1" d="M354.31,396.38c-6.22,22.8,12.12,40.1,30.64,29,17.81-10.7,21.37-41.29,1.12-50-16.58-4.79-28.55,9.43-31.77,20.99h0Z"/>
  <path class="cls-1" d="M434.44,427.17c-5.72,21.09,11.31,37.13,28.45,26.81,16.45-9.82,19.68-38.33.9-46.4-15.35-4.43-26.43,8.81-29.35,19.59h0Z"/>
  <path class="cls-1" d="M513.93,457.56c-5.2,19.27,9.73,33.72,25.08,24.18,14.72-9.24,17.8-35.28,1.17-42.44-13.59-3.9-23.5,8.3-26.25,18.25h0Z"/>
  <path class="cls-1" d="M589.63,486.39c-4.61,16.51,6.38,29.07,19.26,22.01,13.82-7.53,18.25-32.58,3.34-39.01-11.41-3.26-20.09,8.01-22.6,17h0Z"/>
  <path class="cls-1" d="M658.44,512.55c-4.04,13.93,3.27,24.52,13.55,19.49,11.97-5.94,17.58-29.74,5.25-35.21-9.19-2.49-16.51,7.71-18.8,15.72h0Z"/>
  <path class="cls-1" d="M717.7,535.05c-3.46,11.44.91,20.06,8.35,16.62,9.69-4.54,16.12-26.7,6.62-31.07-6.8-1.68-12.83,7.45-14.97,14.45h0Z"/>
  <path class="cls-1" d="M765.75,551.74h0c-3.55,9.95-1.79,17.59,3.45,15.1,2.38-.99,5.79-4.57,8.26-11.17h0c2.67-7.9,2.33-14.02-.9-15.56-4.72-1.01-9.31,7.37-10.81,11.64h0Z"/>
  <path class="cls-1" d="M95.41,293.88c-6.77,20.28-.18,35.73,12.59,29.56,17.06-8.12,29.72-47.2,13.66-54.65-11.45-2.81-22.24,13.01-26.25,25.08h0Z"/>
  <path class="cls-1" d="M61.9,279.2c-6.03,16.87-3.63,30.06,4.72,25.78,12.2-6.4,26.6-44.35,15.78-49.84-7.66-1.51-16.56,13.21-20.5,24.06h0Z"/>
  <path class="cls-1" d="M41.2,269.25c-5.04,13.18-5.98,23.95-1.9,22.5,6.23-2.23,24.17-41.22,17.32-45.39-4.45-.51-11.71,13.1-15.42,22.89h0Z"/>
  <path class="cls-1" d="M32.36,263.65c-3.42,8.37-6.62,17.96-5.75,19.13,2.68-.22,18.63-38.76,16.84-40.75-1.55.34-7.06,11.42-11.08,21.62h0Z"/>
  <path class="cls-1" d="M147.9,399.25c-4.98,26.09,13.62,45.67,31.13,32.68,17.63-13.09,20.33-49.14-.29-58.64-16.84-5.07-28.15,12.17-30.84,25.96h0Z"/>
  <path class="cls-1" d="M214.53,427.02c-5.09,24.63,14.44,43.76,32.71,31.83,18.25-11.91,20.88-46.18-.68-55.79-17.58-5.29-29.29,10.8-32.03,23.95h0Z"/>
  <path class="cls-1" d="M288.25,456.79c-5.27,23.06,14.1,41.2,32.41,30.3,18.3-10.92,21.17-43.06-.34-52.4-17.47-5.22-29.26,9.78-32.07,22.1h0Z"/>
  <path class="cls-1" d="M366.25,487.41c-5.5,21.32,12.81,38.13,30.55,28.1,17.7-10.02,20.95-39.68.64-48.48-16.65-4.88-28.27,8.96-31.18,20.38h0Z"/>
  <path class="cls-1" d="M445.34,517.82c-5.7,19.45,10.66,34.7,27.32,25.35,16.52-9.25,20.37-36.32,1.91-44.17-15.1-4.37-26.2,8.39-29.22,18.83h0Z"/>
  <path class="cls-1" d="M522.32,546.75c-5.55,16.73,6.6,29.94,21.34,23.18,16.22-7.45,22.18-33.31,5.2-40.48-13.16-3.72-23.44,7.91-26.54,17.3h0Z"/>
  <path class="cls-1" d="M594.11,573.13c-5.62,14.87,3.96,26.18,16.78,19.81,14.03-7,20.39-29.9,6.5-35.78-10.9-2.85-20.22,7.67-23.28,15.97h0Z"/>
  <path class="cls-1" d="M657.85,596.01c-5.21,12.44.63,21.67,10.76,17.07,12.1-5.49,20.11-27.05,8.89-31.67-8.47-2.06-16.56,7.27-19.65,14.6h0Z"/>
  <path class="cls-1" d="M711.28,614.54c-4.48,9.62-2.24,16.87,4.54,14.6,10.58-3.52,19.41-23.66,12.08-27.64-.25-.13-.52-.21-.74-.34-6.11-1.26-12.99,7.12-15.89,13.38h0Z"/>
  <path class="cls-1" d="M753.09,626.93c-4.44,8.12-4.48,14.5-.18,12.97,2.87-1,6.82-5.31,9.7-10.46h.04c3.77-7.07,4.48-12.34,1.93-13.44-2.96-.31-7.45,3.93-11.49,10.86h0v.08h0Z"/>
  <path class="cls-1" d="M94.72,375.61c-4.31,22.79,8,39.7,21.56,29.67,15-11.1,19.23-46.79,2.8-54.84-12.77-3.73-21.97,12.51-24.37,25.17h0Z"/>
  <path class="cls-1" d="M55.12,356.79c-3.64,18.59,2.38,32.81,11.4,27.12,12.07-7.63,19.14-44.91,6.86-51.51-8.83-2.38-16.01,12.85-18.26,24.38h0Z"/>
  <path class="cls-1" d="M28.55,342.64c-3.19,15.57-.75,27.72,4.69,23.69,7.92-5.95,15.97-42.22,8.41-47.05-4.92-1.09-10.64,11.19-13.1,23.36h0Z"/>
  <path class="cls-1" d="M14.16,332.94c-2.64,12.27-2.96,22.16-.63,20.84,3.41-2.06,13.33-39.3,9.46-42.88-2.39-.34-6.44,11.19-8.84,22.05h0Z"/>
  <path class="cls-1" d="M11.81,324.34l-4.2,19.15c-.1.49-.21.98-.26,1.57.72-1.65,9.16-38.03,9.16-38.26q-.16.39-.61,1.96l-4.08,15.57h0Z"/>
  <path class="cls-1" d="M106.27,451.18c-2.15,25.32,14.97,43.71,29.02,31.28,13.01-11.39,15.03-46.61-4.85-56.48-14.84-4.8-23.06,11.87-24.18,25.19h0Z"/>
  <path class="cls-1" d="M165.9,477.89c-2.7,23.35,15.92,41.72,31.18,30.62,15.54-11.31,15.66-44.12-4.26-53.47-16.2-5.18-25.53,10.25-26.92,22.86h0Z"/>
  <path class="cls-1" d="M233.86,506.76c-3.73,23.35,16.73,40.53,33.06,27.84,14.56-11.35,14.56-39.84-4.7-48.59-16.52-5.14-26.52,9.06-28.36,20.75h0Z"/>
  <path class="cls-1" d="M307.23,536.62c-4.54,21.49,14.97,37.42,31.63,25.75,14.74-10.23,15.79-36.38-2.85-44.55-16.02-4.93-26.43,8.05-28.78,18.8h0Z"/>
  <path class="cls-1" d="M383.21,566.4c-5.09,18.46,10.75,32.71,26.87,24.3,16.02-8.39,19.32-33.71,1.22-41.43-14.84-4.38-25.39,7.4-28.08,17.14h0Z"/>
  <path class="cls-1" d="M458.66,594.97c-5.68,16.44,7.85,29.01,23.02,21.19,15.01-7.58,19.48-30.17,3.47-36.81-13.21-3.73-23.46,6.86-26.49,15.62h0Z"/>
  <path class="cls-1" d="M530.67,621.2c-5.93,13.85,3.59,24.36,16.92,18.78,15.11-6.4,20.5-26.65,8.6-32.49-.4-.17-.98-.34-1.38-.55-11.26-2.93-20.88,6.59-24.13,14.26h0Z"/>
  <path class="cls-1" d="M596.35,644.11c-5.72,11.31.26,20.06,11.04,16.11,13.49-4.89,20.91-23.87,11.3-28.64-.36-.12-.8-.31-1.18-.45-9.02-2.13-17.79,6.37-21.16,12.99h0Z"/>
  <path class="cls-1" d="M653.23,662.97c-5.05,8.69-2.76,15.45,4.67,13.62,11.78-2.8,21.98-21.14,14.02-25.08-.22-.13-.55-.24-.78-.29-6.76-1.42-14.56,6.02-17.9,11.74h0Z"/>
  <path class="cls-1" d="M700.14,676.03h-.07c-4.85,6.92-5.21,12.57-.72,12.13,2.74-.27,7.77-3.3,12.25-9.35h.07c4.42-6.31,5.28-11.2,2.09-12.3-3.59-.55-8.92,3.16-13.61,9.52h0Z"/>
  <path class="cls-1" d="M61.64,429.23c-1.51,20.95,8.46,36.86,18.25,29.34,11.97-9.12,13.6-46.25-.82-54.15-10.62-3.38-16.64,12.38-17.44,24.81h0Z"/>
  <path class="cls-1" d="M29.74,411.68c-1.19,18.12,4.48,31.66,10.79,26.02,8.51-7.6,10.87-43.94,1.12-50.11-6.98-2.24-11.15,12.78-11.91,24.09h0Z"/>
  <path class="cls-1" d="M10.09,398.44c-.97,14.32,1.16,25.88,4.34,23.43,4.98-3.82,8.84-41.59,2.97-46.49-3.46-.98-6.49,11.2-7.31,23.06h0Z"/>
  <path class="cls-1" d="M1.85,389.47c-.6,7.09-1.15,18.39-.11,20.28.11,0,.23,0,.31-.04,2.02-4.04,5.01-39.44,3.54-42.04-1.68.67-3.36,16.33-3.74,21.8h0Z"/>
  <path class="cls-1" d="M126.46,532.81c.37,24.65,20.32,42.67,32.44,29.19,10.04-11.26,8.48-42.47-10.7-52.02-15.23-5.36-21.91,10.12-21.74,22.84h0Z"/>
  <path class="cls-1" d="M186.42,560.08c-1.1,22.79,19.27,39.92,32.97,27.84,12.68-11.22,10.31-39.55-8.35-48.39-15.98-5.27-24.01,8.84-24.62,20.55h0Z"/>
  <path class="cls-1" d="M252.66,588.39c-2.69,20.79,16.96,36.67,31.85,25.85,13.67-9.99,13.06-35.88-5.47-44.27-15.92-5.02-24.98,7.74-26.38,18.42h0Z"/>
  <path class="cls-1" d="M322.51,616.72c-4.2,18.64,13.91,32.99,29.4,23.26,14.12-8.86,15.42-32.15-2.17-39.77-15.18-4.58-25.05,6.91-27.23,16.51h0Z"/>
  <path class="cls-1" d="M393.34,644.07c-5.31,15.83,8.84,28.37,24.01,21.32,15.38-7.19,19.64-29.22,2.95-36.17-13.82-3.97-24.04,6.29-26.96,14.85h0Z"/>
  <path class="cls-1" d="M462.39,669.41c-6.05,13.21,4.06,23.8,18.06,18.82,16.24-5.83,22.05-25.66,9.31-31.7-.45-.22-1.08-.45-1.53-.56-12.13-3.25-22.38,5.88-25.84,13.43h0Z"/>
  <path class="cls-1" d="M526.98,691.76c-6.46,11-.09,19.65,12.07,16.19,15.12-4.38,23.73-22.86,12.99-27.91-.34-.11-.88-.32-1.24-.42-10.05-2.47-20.04,5.62-23.83,12.14h0Z"/>
  <path class="cls-1" d="M584.74,710.44c-5.99,8.34-3.42,15.11,5.21,13.66,13.03-2.19,25.32-18.74,17.74-23.91-.44-.34-1.2-.64-1.79-.8-7.94-1.64-17.13,5.47-21.15,11.06h0Z"/>
  <path class="cls-1" d="M633.63,724.79c-5.25,6.26-5.33,11.35-.04,11.05,9.78-.49,24.86-16.45,19.36-20.65-.34-.23-.84-.38-1.24-.56-5.88-.9-14.1,5.4-18.08,10.16h0Z"/>
  <path class="cls-1" d="M672.79,733.4c-5.29,5.28-7.08,9.68-3.91,9.56,2.36-.09,7.97-3.05,13.06-8.05h.12c5.13-5.27,6.92-9.06,4.59-9.78-3.05-.18-8.3,2.96-13.86,8.23v.05h0Z"/>
  <path class="cls-1" d="M78.27,508.64c1.17,22.17,15.57,38.18,24.4,27.31,8.35-10.29,6.27-41.47-9.23-50-11.53-4.19-15.8,10.75-15.17,22.7h0Z"/>
  <path class="cls-1" d="M42.09,488.45c1.41,18.18,10.2,32.38,15.96,25.67,7.17-8.31,4.21-41.35-6.56-48.03-7.82-3.05-10.18,11.31-9.39,22.36h0Z"/>
  <path class="cls-1" d="M17.62,472.22c1.25,14.92,6.06,27,9.43,23.57,4.79-4.97,2.57-39.79-4.54-45.29-4.27-1.68-5.88,9.99-4.89,21.72h0Z"/>
  <path class="cls-1" d="M4.2,460.04c.94,11.64,3.2,21.83,4.57,20.92,2.07-1.32.59-37.28-3.18-41.75-1.91-.85-2.25,10.08-1.39,20.82h0Z"/>
  <path class="cls-1" d="M1.29,457.79l1.17,11.76c-.03-.12-1.34-14.23-2.45-37.5h0l1.29,25.75h0Z"/>
  <path class="cls-1" d="M102.5,577.93c3.25,21.56,19.92,38.18,28.34,28.2,8.11-9.61,3.35-40.4-13.93-49.71-12.88-4.91-16.2,9.64-14.41,21.51h0Z"/>
  <path class="cls-1" d="M153.89,603.12c1.64,21.22,20.05,36.86,30.24,25.64,8.51-9.31,5.66-35.82-11.91-44.57-14.06-5.02-19.22,8.01-18.33,18.94h0Z"/>
  <path class="cls-1" d="M212.05,629.44c-.37,20.14,19.17,34.49,30.76,22.63,8.72-9.04,7.34-31.36-9.65-39.3-14.22-4.84-20.93,6.87-21.1,16.67h0Z"/>
  <path class="cls-1" d="M274.59,655.92c-2.51,17.91,15.8,30.85,28.79,20.31,9.73-7.88,10.58-27.75-5.72-34.98-13.87-4.44-21.83,5.93-23.07,14.67h0Z"/>
  <path class="cls-1" d="M339.15,681.63c-4.21,14.88,10.54,26.18,24.23,18.69,12.56-6.89,14.58-25.32-.27-31.58-12.92-3.9-21.77,5.16-23.96,12.89h0Z"/>
  <path class="cls-1" d="M403.31,705.6c-5.54,12.28,5.39,21.93,18.87,16.55,14.11-5.59,17.96-21.96,6.43-27.36-.44-.16-1.07-.41-1.44-.64-11.52-3.13-20.9,4.77-23.86,11.46h0Z"/>
  <path class="cls-1" d="M464.61,727.06c-5.99,9.41.29,17.19,11.68,14.57,14-3.24,22.47-18.1,13.5-23.68-.63-.41-1.61-.74-2.29-1.05-9.86-2.46-19.33,4.47-22.9,10.16h0Z"/>
  <path class="cls-1" d="M520.89,745.27c-5.82,7.1-3.28,13.15,5.21,12.14,12.34-1.35,24.41-14.45,18.4-19.87-.77-.74-1.71-1.08-2.52-1.37-8-1.71-17.14,4.34-21.09,9.09h0Z"/>
  <path class="cls-1" d="M570.08,759.67c-5.32,5.25-5.32,9.73,0,9.73,9.84-.06,24.74-12.42,20.48-17.03-.49-.5-1.21-.78-1.79-.93-6.08-1.04-14.54,4.2-18.68,8.23h0Z"/>
  <path class="cls-1" d="M611.55,768.96h-.04c-5.25,4.2-7.18,7.71-4.37,8.17,2.39.44,8.81-1.86,14.74-6.33l.03-.07h0c5.58-4.35,7.37-7.71,4.55-8.5-4.21-.39-11.19,3.81-14.9,6.72h0Z"/>
  <path class="cls-1" d="M63.53,556.33c3.75,19.36,15.72,34.26,21.07,26.07,5.59-8.5.05-39.91-12.94-47.8-9.18-3.68-10.29,10.47-8.12,21.73h0Z"/>
  <path class="cls-1" d="M35.32,538.29c3.53,16.11,11.2,29.24,14.45,24.53,4-5.83-1.79-39.3-11.2-46.08-5.39-2.4-5.88,9.36-3.26,21.55h0Z"/>
  <path class="cls-1" d="M17.58,523.74c2.86,12.99,7.49,24.3,9.18,22.46,2.63-2.92-4.21-38.11-9.67-43.38-2.86-1.52-2.05,9.61.5,20.92h0Z"/>
  <path class="cls-1" d="M9.64,512.84c1.89,8.96,4.24,17.79,5.21,19.77,1.35-1.65-8.19-39.6-8.35-39.87-.94,1.22,3.08,19.92,3.14,20.1h0Z"/>
  <path class="cls-1" d="M133.64,647.97c4.71,18.34,22.11,35.43,28.82,24.36,5.49-9.12-.94-34.14-16.98-42.61-11.29-4.42-14.95,5.99-11.84,18.25h0Z"/>
  <path class="cls-1" d="M182.22,671.54c2.47,17.03,20.55,32.85,29.12,21.33,6.28-8.46,2.05-29.57-13.37-37.12-13.09-4.8-17.09,6.36-15.75,15.79h0Z"/>
  <path class="cls-1" d="M235.34,695.24c0,16.61,17.18,28.7,27.5,19.23,7.94-7.22,6.65-25.79-8.68-32.78-13-4.43-18.82,5.27-18.82,13.55h0Z"/>
  <path class="cls-1" d="M291.1,718.35c-2.6,14.31,13.02,24.95,24.92,16.9,10.03-6.83,9.67-22.73-3.93-28.54-12.29-3.87-19.69,4.46-21,11.64h0Z"/>
  <path class="cls-1" d="M347.54,740.05c-4.75,11.74,7.27,20.73,20.1,15.08,11.82-5.21,15.08-19.77,2.13-25.02-11.27-3.24-19.82,3.91-22.23,9.94h0Z"/>
  <path class="cls-1" d="M402.52,759.77c-5.59,8.52.6,15.68,11.87,13.66,13.05-2.36,21.44-14.6,13.99-20.53-1.12-.85-2.33-1.37-3.36-1.74-9.83-2.59-19.07,3.48-22.5,8.61h0Z"/>
  <path class="cls-1" d="M454.18,776.81c-5.66,5.97-3.68,11.25,4.16,11.27,12.14.13,25.92-10.95,21-16.88-.91-1.12-2.12-1.6-3.25-2.01-8.28-1.85-17.81,3.33-21.91,7.62h0Z"/>
  <path class="cls-1" d="M500.8,790.6c-5.53,4.38-5.97,8.15-1.03,8.8,9.68,1.27,27.04-9,23.79-14.16-.56-.85-1.45-1.19-2.4-1.41-6.99-1.32-16.19,3.47-20.36,6.76h0Z"/>
  <path class="cls-1" d="M540.76,800.67c-5.3,3.4-6.91,6.23-4,6.77,7,1.37,26.32-8.77,23.51-12.28-.26-.37-.84-.57-1.29-.7-5.25-.6-13.98,3.48-18.22,6.21h0Z"/>
  <path class="cls-1" d="M573.67,806.25c-5.38,2.79-8.19,5.15-6.73,5.57,1.45.47,8-1.45,14.67-4.8h0c7.56-3.89,7.84-5.54,7.03-5.88-.14-.03-.3-.03-.41-.03-2.58-.14-8.16,1.88-14.49,5.14h-.07Z"/>
  <path class="cls-1" d="M94.05,626.48c5.49,16.85,19.45,32.63,23.39,23.39,3.63-8.35-4.75-34.65-17.56-42.14-8.58-3.71-9.69,6.88-5.83,18.75h0Z"/>
  <path class="cls-1" d="M63.83,607.73c5.69,15.67,15.5,28.15,17.67,22.61,2.47-6.17-7.17-35.03-16.78-41.65-5.87-2.74-5.04,7.71-.9,19.04h0Z"/>
  <path class="cls-1" d="M42.79,592c4.91,12.63,11.8,23.95,12.96,21.19,1.52-3.59-8.94-34.37-15.67-40.06-3.74-2.12-.46,9.56,0,10.91.69,2.46,1.63,5.15,2.71,7.96h0Z"/>
  <path class="cls-1" d="M30.64,579.28c3.18,8.17,7.71,18.14,9.06,19.32,1.16-1.51-12.09-34.88-14.26-37.75-.08-.05-.14-.09-.24-.14-.97,1.22,3.57,13.75,5.43,18.57h0Z"/>
  <path class="cls-1" d="M127.4,683.52c6.91,15.24,22.02,30.12,25.1,22.28,2.96-7.4-7.37-31.45-20.66-38.95-8.75-3.76-9.24,4.69-5.31,14.55.3.66.6,1.56.87,2.13h0Z"/>
  <path class="cls-1" d="M166.77,704.01c5.16,15.08,21.28,28.8,25.55,18.63,3.12-7.49-3.32-25.84-16.53-32.67-9.8-3.87-12.32,4.31-9.02,14.04h0Z"/>
  <path class="cls-1" d="M210.77,724.72c2.76,14.76,18.92,25.19,24.81,15.84,4.2-6.59.43-21.56-12.04-27.48-11.04-4.04-14.04,4.37-12.77,11.65h0Z"/>
  <path class="cls-1" d="M257.65,744.98c-.34,12.54,14.61,21.62,22.78,13.89,5.82-5.49,4.97-18.12-7.01-23.51-10.62-3.46-15.6,3.53-15.77,9.63h0Z"/>
  <path class="cls-1" d="M305.73,764.29c-3.03,10.17,8.73,17.74,19.02,12.38,8.75-4.57,9.69-15.83-1.12-20.25-9.83-3.05-16.39,2.79-17.9,7.87h0Z"/>
  <path class="cls-1" d="M353.42,781.96c-4.54,7.03,1.98,13.14,12.03,11.19,10.76-2.13,16.47-11.31,10.09-16.25-.98-.73-2.11-1.12-3.01-1.45-8.8-2.45-16.45,2.32-19.11,6.51h0Z"/>
  <path class="cls-1" d="M399.04,797.37c-4.84,4.67-3.13,8.88,3.87,9.2,10.91.57,23.06-7.96,18.51-12.91-.83-.97-1.83-1.31-2.96-1.76-7.49-1.79-15.88,2.13-19.42,5.47h0Z"/>
  <path class="cls-1" d="M441.14,810.28c-4.6,2.96-5.31,5.81-1.72,6.78,8.31,2.11,25.98-5.79,22.84-10.26-.5-.68-1.35-.94-2.21-1.23-6.49-1.35-15.02,2.12-18.91,4.7h0Z"/>
  <path class="cls-1" d="M478.43,820.02c-4.69,2.31-6.37,4.3-4.32,5.04,5.5,2.03,24.71-4.84,23.36-8.3-.23-.49-.83-.67-1.52-.9-4.98-.74-13.42,2.13-17.52,4.15h0Z"/>
  <path class="cls-1" d="M510.58,826.12h0c-4.99,1.85-7.63,3.41-6.83,3.96,1.05.79,7.99-.4,15.03-2.84v-.07h.08c8.32-3.01,7.13-4.13,7-4.25-.17-.12-.44-.17-.63-.22-4.08-.34-13.05,2.78-14.66,3.41h0Z"/>
  <path class="cls-1" d="M96.9,665.44c6.77,13.14,18.76,27.03,20.49,21.94,1.91-5.47-10.81-32.64-21.37-39.45-6.94-3.3-3.07,8.28-2.58,9.63.53,1.64,1.61,4.37,3.46,7.89h0Z"/>
  <path class="cls-1" d="M74.2,649.58c6.52,12,15.47,23.39,16.55,21.14,1.17-2.87-13.5-32.86-21.33-38.92-1.95-1.11-2.47.27-1.33,4.09.99,3.47,3.13,8.33,6.11,13.69h0Z"/>
  <path class="cls-1" d="M59.16,636.25c5.05,9.09,11.08,18.22,12.88,19.64.11-.1.23-.14.26-.14-.44-3.26-16.55-33.19-20.58-37.28-.11-.11-.32-.23-.5-.23-.72,1.12,3.59,10.19,7.94,18h0Z"/>
  <path class="cls-1" d="M61.64,642.99c-6.82-11.32-12.66-23.3-19.02-34.84l.17.46c5.56,10.3,12.79,24.31,18.85,34.38h0Z"/>
  <path class="cls-1" d="M165.53,736.36c7.29,11.53,21.4,23.51,22.79,17.81,1.23-5.05-8.98-24.19-20.95-30.69-8.73-3.67-5.47,5.51-5.07,6.62.49,1.24,1.44,3.41,3.23,6.26h0Z"/>
  <path class="cls-1" d="M199.36,753.33c5.08,10.92,18.86,21.4,21.53,14.49,2.16-5.48-4.12-19.35-15.2-24.85-8.23-3.23-9.92,2.74-6.33,10.37h0Z"/>
  <path class="cls-1" d="M235.74,769.91c2.36,9.91,16.06,19.08,20.5,11.32,2.69-4.67,0-14.78-10.26-19.44-8.23-2.96-11.74,1.91-10.25,8.12h0Z"/>
  <path class="cls-1" d="M273.6,785.76c-.85,8.94,11.4,15.35,18.46,9.6,4.47-3.68,4.37-11.92-5-15.89-8.66-2.8-13.11,1.97-13.47,6.29h0Z"/>
  <path class="cls-1" d="M311.61,800.3c-3.41,6.16,3.97,11.22,13.05,8.95,8.43-2.11,11.08-9.18,4.75-12.76-.56-.31-1.35-.65-1.98-.91-7.76-2.28-14,1.38-15.83,4.72h0Z"/>
  <path class="cls-1" d="M348.62,813.28c-4.15,3.44-2.53,6.74,3.52,7.3,9.44,1.01,19.99-4.48,17.03-8.79-.82-1.17-2.29-1.68-3.18-1.98-7.23-1.92-14.52,1.12-17.37,3.47h0Z"/>
  <path class="cls-1" d="M383.42,824.36c-3.36,1.59-5.42,3.71-2.51,4.82,6.6,2.52,24.3-2.19,22.79-6.04-.34-.9-1.58-1.3-2.31-1.56-6.03-1.37-14.22.98-17.98,2.78h0Z"/>
  <path class="cls-1" d="M415.05,833.07c-3.46,1.03-6.54,2.49-5.02,3.31,4.09,2.32,25.31-1.8,24.18-4.72-.22-.44-.78-.63-1.48-.78-4.84-.9-13.23.84-17.68,2.19h0Z"/>
  <path class="cls-1" d="M442.43,839.27c-4.32.89-6.54,1.69-6.54,2.12,1.91,1.79,23.66-1.45,24.08-3.56.03-.34-.37-.41-.86-.52-4.8-.63-16.17,1.85-16.68,1.97h0Z"/>
  <path class="cls-1" d="M465.84,842.51c-2.8.45-7.67,1.23-8.3,1.62.58.39,8.34-.39,14.06-1.23h.07v-.05c7-1.11,8.28-1.67,8.57-1.88-.14-.1-.29-.13-.41-.13-1.9-.11-6.62.47-13.95,1.68h-.04Z"/>
  <path class="cls-1" d="M137.31,720.46c7.42,10.33,19.88,22.08,20.51,18.31.64-3.79-13.32-26.01-23.63-32.27-4.1-1.98-3.8.89-2.79,3.56.44,1.24,1.91,4.83,5.91,10.4h0Z"/>
  <path class="cls-1" d="M115.15,706.06c6.33,8.25,16.02,18.51,17.85,18.22,1.13-1.88-17.59-27.88-24.85-33.04-.68-.34-2.3-1.23-1.4,1.45.68,2.1,3.24,6.73,8.39,13.37h0Z"/>
  <path class="cls-1" d="M99.09,693.5c6.6,8.37,14.27,16.79,15.39,17.19-.26-1.65-20.82-28.73-24.97-32.44-.16-.09-.37-.2-.61-.27-.26,1.74,6.56,10.9,10.18,15.52h0Z"/>
  <path class="cls-1" d="M101.87,698.64c-8.11-10.24-15.66-20.95-23.97-31.03,0-.04-.03-.11-.08-.15.05.15.16.49,3.34,4.86,6.16,7.94,14.24,18.68,20.7,26.32h0Z"/>
  <path class="cls-1" d="M176.23,760.77c7.23,7.37,18.38,15.9,20.1,15.44,1.05-1.76-15.99-21.39-25.37-26.75-.94-.43-3.68-1.68-2.62,1.11.77,2.23,3.74,6.05,7.89,10.19h0Z"/>
  <path class="cls-1" d="M200.88,773.88c6.33,7.39,17.94,15.78,18.01,12.25,0-2.98-9.06-16.11-18.37-20.88-5.09-2.19-4.31,1.01-3.68,2.52.45,1.18,1.51,3.13,4.04,6.11h0Z"/>
  <path class="cls-1" d="M227.92,786.75c4,6.39,15.04,14.22,15.98,9.26.67-3.21-3.91-11.72-12.02-15.59-6.33-2.4-6.37,1.53-4.98,4.53.26.56.68,1.37,1.02,1.8h0Z"/>
  <path class="cls-1" d="M256.18,799.06c1.64,6.05,11.6,11.64,14.74,6.93,1.7-2.55-.14-8.28-7-11.29-5.89-2.07-8.8.62-7.74,4.36h0Z"/>
  <path class="cls-1" d="M284.84,810.55c-1.68,4.81,7.11,8.67,13,5.72,3.8-1.98,3.69-6.13-2.2-8.53-6.03-1.96-10,.51-10.8,2.81h0Z"/>
  <path class="cls-1" d="M313.11,820.77c-2.81,2.03-1.5,4.03,2.98,4.71,7.44,1.24,15.12-1.66,12.66-4.71-.68-.8-1.91-1.27-2.6-1.55-5.58-1.57-11,.1-13.04,1.55h0Z"/>
  <path class="cls-1" d="M340.05,829.68c-1.12.29-4.67,1.45-2.59,2.53,4.01,1.98,20.16.95,18.86-2.13-.23-.56-1.23-.9-1.78-1.12-5.25-1.34-12.26.12-14.5.72h0Z"/>
  <path class="cls-1" d="M364.94,836.92c-4.74.57-4.84.98-4.93,1.22,1.3,1.92,20.68,1.37,21.17-.65.04-.41-.71-.63-1.17-.81-4.88-.98-14.03.14-15.08.24h0Z"/>
  <path class="cls-1" d="M387.06,842.29c-5.39.23-5.88.47-6.1.56v.12c2.65.9,20.1,1.01,21.67-.21q-.1-.24-.6-.36c-3.21-.54-10.7-.33-14.96-.11h0Z"/>
  <path class="cls-1" d="M406.85,845.64h0c-2.65,0-5.34-.27-7.98.13.84.23,7.36.51,13.12.51h.04c6.89-.07,8.02-.36,8.12-.41-.1-.06-.19-.1-.34-.1-.84-.13-2.05-.23-12.95-.13h0Z"/>
  <path class="cls-1" d="M156.42,748.86c7.77,7.43,17.07,14.71,19.02,15.47,0-.04.04-.09.14-.09-.75-1.46-21.44-23.46-28.51-28.07-.78-.37-.97-.46-1.36-.42-.73.94,3.81,6.55,10.71,13.1h0Z"/>
  <path class="cls-1" d="M140.96,737.97c8.02,7.59,16.07,14.07,17.68,15.19-.29-.79-27.25-26.76-29.76-28.67-.18-.1-.4-.22-.63-.33.04,1.23,6.56,7.93,12.71,13.81h0Z"/>
  <path class="cls-1" d="M141.91,739.39c-8.85-7.96-16.98-16.69-25.5-24.92-.1-.03-.18-.1-.26-.16.08.12.17.27,2.41,2.64,6.96,6.76,16.12,15.94,23.35,22.44h0Z"/>
  <path class="cls-1" d="M217.62,792.7c4.14,2.62,8.96,5.3,14.61,8.16l1.9,1.02c.12,0,.24.1.32.1q-6.86-4.35-10.95-7.28c-8.12-5.89-10.59-7.62-13.66-9.28-1.08-.47-1.24-.56-1.64-.47-.34.81,3.77,4.04,9.42,7.75h0Z"/>
  <path class="cls-1" d="M234.44,801.03c5.45,3.75,12.61,7.01,13.33,7.23-.17-.47-10.46-9.19-16.29-12-.68-.34-2.78-1.24-2.24.07.29.78,1.79,2.42,5.2,4.7h0Z"/>
  <path class="cls-1" d="M252.07,809.05c2.56,2.05,10.54,6.26,10.5,4.91-.07-.77-3.4-5.15-8.98-7.63-3.52-1.32-3.67-.08-3.23.69.23.57.9,1.29,1.71,2.03h0Z"/>
  <path class="cls-1" d="M270.07,816.43c.85,1.85,8.79,5.04,9.73,3.18.33-.6-.27-2.51-4.35-4.14-4-1.38-6.01-.39-5.38.97h0Z"/>
  <path class="cls-1" d="M287.77,823.05c-1.24.38-.34.77-.08.93,3.48,1.69,11.94,2.93,11,.96-.36-.72-1.74-1.24-2.31-1.47-4.2-1.31-7.72-.76-8.61-.42h0Z"/>
  <path class="cls-1" d="M304.79,828.78c-.91-.04-1.79-.24-2.7-.16.32.33,5.77,1.79,9.47,2.36,3.5.57,5.52.44,5.66.04.03-.31-.85-.61-1.34-.78-2.89-.82-6.38-1.11-11.09-1.46h0Z"/>
  <path class="cls-1" d="M320.62,833.56c-1.61-.23-3.19-.57-4.82-.92,3.03,1.04,16.01,3.94,18.31,3.4v-.14c-.21-.09-.5-.2-.75-.2-4.16-1.08-8.48-1.42-12.74-2.13h0Z"/>
  <path class="cls-1" d="M334.88,837.25c-1.38-.23-2.69-.57-4.07-.84l1.3.28,6.31,1.37c6.72,1.37,9.84,1.65,10.46,1.73-.1-.08-.26-.18-.38-.18-4.48-.9-9.08-1.45-13.62-2.35h0Z"/>
  <path class="cls-1" d="M361.23,842.17c-.1-.06-.18-.06-.23-.06-1.79-.25-3.58-.54-5.38-.81l5.61.87h0Z"/>
  <path class="cls-1" d="M202.91,784.52l.31.09c4.44,2.7,10.32,6.17,14.72,8.69-9.25-5.32-17.45-12.25-26.65-17.63-.54-.31-.72-.4-.9-.4.63,1.18,5.88,5.01,12.53,9.25h0Z"/>
  <path class="cls-1" d="M191.79,777.46c-5.13-3.48-10.13-7.29-15.33-10.76-.12-.1-.31-.16-.45-.22.3.22.38.39,2.25,1.8,4.01,2.73,9.44,6.48,13.54,9.18h0Z"/>
</svg>